<svg width="28" height="28" viewBox="0 0 28 28" fill="none" xmlns="http://www.w3.org/2000/svg">
<path d="M23.5296 4.42204H17.6475C17.2575 4.42204 16.8834 4.57729 16.6077 4.85365C16.3319 5.13001 16.177 5.50483 16.177 5.89566C16.177 6.28649 16.3319 6.66131 16.6077 6.93767C16.8834 7.21402 17.2575 7.36928 17.6475 7.36928H23.5296C23.9196 7.36928 24.2936 7.52454 24.5694 7.8009C24.8452 8.07725 25.0001 8.45207 25.0001 8.8429V23.1665L22.6914 21.0298C22.4202 20.7753 22.0629 20.6332 21.6914 20.6319H8.82432C8.43432 20.6319 8.06028 20.4766 7.78451 20.2003C7.50873 19.9239 7.3538 19.5491 7.3538 19.1583V17.6846C7.3538 17.2938 7.19887 16.919 6.92309 16.6426C6.64731 16.3663 6.27328 16.211 5.88327 16.211C5.49326 16.211 5.11923 16.3663 4.84345 16.6426C4.56768 16.919 4.41275 17.2938 4.41275 17.6846V19.1583C4.41275 20.3307 4.87754 21.4552 5.70487 22.2843C6.5322 23.1134 7.6543 23.5791 8.82432 23.5791H21.1179L25.5295 27.6021C25.8007 27.8566 26.158 27.9987 26.5295 28C26.7312 27.9978 26.9307 27.9578 27.1177 27.8821C27.3807 27.7671 27.6044 27.5774 27.7612 27.3365C27.918 27.0956 28.001 26.814 28 26.5264V8.8429C28 8.25735 27.884 7.67763 27.6586 7.13738C27.4333 6.59714 27.103 6.10715 26.6871 5.69585C26.2712 5.28456 25.7779 4.96016 25.2359 4.74148C24.6939 4.52281 24.1139 4.41423 23.5296 4.42204ZM9.67723 14.7374H13.2359C13.6259 14.7374 13.9999 14.5821 14.2757 14.3058C14.5515 14.0294 14.7064 13.6546 14.7064 13.2638V9.6976C14.7075 9.50367 14.6705 9.31141 14.5973 9.13187C14.5241 8.95233 14.4163 8.78903 14.28 8.65133L6.07444 0.428519C5.79892 0.154055 5.42621 0 5.03772 0C4.64923 0 4.27652 0.154055 4.001 0.428519L0.427618 4.00942C0.153731 4.28552 0 4.65902 0 5.04833C0 5.43764 0.153731 5.81113 0.427618 6.08723L8.63316 14.31C8.77056 14.4466 8.93352 14.5547 9.11268 14.628C9.29185 14.7013 9.4837 14.7385 9.67723 14.7374ZM5.03037 3.5526L11.7654 10.3018V11.7754H10.2949L3.54513 5.04096L5.03037 3.5526Z" fill="#424866"/>
</svg>
