<svg width="28" height="30" viewBox="0 0 28 30" fill="none" xmlns="http://www.w3.org/2000/svg">
<path d="M16.2102 7.49997H17.6839C18.0746 7.50049 18.4491 7.65869 18.7254 7.93988C19.0017 8.22107 19.1571 8.6023 19.1576 8.99997V10.5C19.1576 10.8978 19.3129 11.2793 19.5893 11.5606C19.8656 11.8419 20.2405 12 20.6313 12C21.0222 12 21.3971 11.8419 21.6734 11.5606C21.9498 11.2793 22.1051 10.8978 22.1051 10.5V8.99997C22.1038 7.8069 21.6376 6.66306 20.8087 5.81944C19.9799 4.97581 18.8561 4.50128 17.6839 4.49998H16.2102C15.8193 4.49998 15.4444 4.65802 15.1681 4.93932C14.8917 5.22062 14.7364 5.60215 14.7364 5.99998C14.7364 6.3978 14.8917 6.77933 15.1681 7.06063C15.4444 7.34194 15.8193 7.49997 16.2102 7.49997ZM10.3152 20.9999H8.8415C8.4508 20.9994 8.07624 20.8412 7.79997 20.56C7.52371 20.2788 7.36828 19.8976 7.36777 19.4999V17.9999C7.36777 17.6021 7.2125 17.2206 6.93612 16.9393C6.65974 16.658 6.28489 16.4999 5.89404 16.4999C5.50318 16.4999 5.12833 16.658 4.85195 16.9393C4.57557 17.2206 4.42031 17.6021 4.42031 17.9999V19.4999C4.42159 20.693 4.8878 21.8368 5.71666 22.6805C6.54551 23.5241 7.66932 23.9986 8.8415 23.9999H10.3152C10.7061 23.9999 11.0809 23.8419 11.3573 23.5606C11.6337 23.2793 11.789 22.8977 11.789 22.4999C11.789 22.1021 11.6337 21.7206 11.3573 21.4393C11.0809 21.158 10.7061 20.9999 10.3152 20.9999ZM26.5263 19.4999C26.9171 19.4999 27.292 19.3419 27.5684 19.0606C27.8447 18.7793 28 18.3978 28 17.9999C28 17.6021 27.8447 17.2206 27.5684 16.9393C27.292 16.658 26.9171 16.4999 26.5263 16.4999H22.1051V15.7499C22.1051 15.3521 21.9498 14.9706 21.6734 14.6893C21.3971 14.408 21.0222 14.25 20.6313 14.25C20.2405 14.25 19.8656 14.408 19.5893 14.6893C19.3129 14.9706 19.1576 15.3521 19.1576 15.7499V16.4999H14.7364C14.3456 16.4999 13.9707 16.658 13.6943 16.9393C13.418 17.2206 13.2627 17.6021 13.2627 17.9999C13.2627 18.3978 13.418 18.7793 13.6943 19.0606C13.9707 19.3419 14.3456 19.4999 14.7364 19.4999H22.3766C22.0432 20.8785 21.4278 22.17 20.5705 23.2899C20.2197 22.8271 19.9095 22.3338 19.6433 21.8158C19.5551 21.6406 19.4338 21.4848 19.2863 21.3572C19.1389 21.2297 18.9682 21.133 18.7841 21.0726C18.5999 21.0122 18.4059 20.9893 18.213 21.0053C18.0202 21.0212 17.8323 21.0756 17.6602 21.1655C17.488 21.2553 17.3349 21.3788 17.2096 21.5288C17.0843 21.6789 16.9893 21.8526 16.9299 22.04C16.8101 22.4186 16.8429 22.8301 17.0211 23.184C17.418 23.9647 17.8916 24.7024 18.4346 25.386C17.3654 26.1762 16.1495 26.737 14.8609 27.0344C14.4797 27.12 14.1474 27.356 13.937 27.6906C13.7266 28.0253 13.6552 28.4312 13.7384 28.8194C13.8217 29.2075 14.0529 29.5462 14.3812 29.7611C14.7096 29.976 15.1083 30.0495 15.4898 29.9656C17.3389 29.5493 19.0734 28.7183 20.5668 27.5331C22.0728 28.7189 23.8187 29.5495 25.6785 29.9648C25.8675 30.0072 26.0629 30.0113 26.2534 29.9769C26.444 29.9425 26.626 29.8702 26.7891 29.7642C26.9522 29.6581 27.0932 29.5204 27.2041 29.359C27.3149 29.1975 27.3934 29.0153 27.4351 28.823C27.4767 28.6306 27.4808 28.4318 27.4469 28.2378C27.4131 28.0439 27.3421 27.8586 27.2379 27.6926C27.1338 27.5266 26.9985 27.3831 26.8398 27.2703C26.6811 27.1574 26.5022 27.0776 26.3132 27.0351C25.016 26.7416 23.7901 26.1855 22.7083 25.4C24.0711 23.6927 24.9896 21.6636 25.3793 19.4999H26.5263ZM8.88536 13.864C8.98118 14.2489 9.22302 14.5794 9.55787 14.7832C9.89273 14.9869 10.2933 15.0472 10.6718 14.9508C11.0502 14.8545 11.3757 14.6093 11.5769 14.2691C11.7781 13.9289 11.8385 13.5214 11.745 13.1359L9.1552 2.5913C8.97329 1.85111 8.55353 1.19405 7.96264 0.724536C7.37175 0.255023 6.64362 0 5.89399 0C5.14436 0 4.41624 0.255023 3.82535 0.724536C3.23445 1.19405 2.8147 1.85111 2.63279 2.5913L0.0429721 13.1359C-0.0505395 13.5214 0.00992329 13.9289 0.211108 14.2691C0.412293 14.6093 0.737788 14.8545 1.11625 14.9508C1.49471 15.0472 1.89527 14.9869 2.23013 14.7832C2.56499 14.5794 2.80683 14.2489 2.90264 13.864L3.72883 10.5H8.05917L8.88536 13.864ZM4.4657 7.49997L5.49246 3.31932C5.5233 3.23633 5.57824 3.16485 5.64997 3.11442C5.7217 3.06398 5.80681 3.03696 5.89399 3.03696C5.98117 3.03696 6.06629 3.06398 6.13802 3.11442C6.20974 3.16485 6.26468 3.23633 6.29553 3.31932L7.3223 7.49997H4.4657Z" fill="#424866"/>
</svg>
