<svg width="24" height="22" viewBox="0 0 24 22" fill="none" xmlns="http://www.w3.org/2000/svg">
<path d="M1.5 2.33749H16.7625C17.2125 2.33749 17.625 1.96249 17.625 1.47499C17.625 0.987488 17.25 0.612488 16.7625 0.612488H1.5C1.05 0.612488 0.637501 0.987488 0.637501 1.47499C0.637501 1.96249 1.05 2.33749 1.5 2.33749Z" fill="black"/>
<path d="M1.5 8.67498H19.65C20.1 8.67498 20.5125 8.29998 20.5125 7.81248C20.5125 7.32498 20.1375 6.94998 19.65 6.94998H1.5C1.05 6.94998 0.637501 7.32498 0.637501 7.81248C0.637501 8.29998 1.05 8.67498 1.5 8.67498Z" fill="black"/>
<path d="M1.5 15.0125H13.9125C14.3625 15.0125 14.775 14.6375 14.775 14.15C14.775 13.6625 14.4 13.2875 13.9125 13.2875H1.5C1.05 13.2875 0.637501 13.6625 0.637501 14.15C0.637501 14.6375 1.05 15.0125 1.5 15.0125Z" fill="black"/>
<path d="M22.5 19.6625H1.5C1.05 19.6625 0.637501 20.0375 0.637501 20.525C0.637501 21.0125 1.0125 21.3875 1.5 21.3875H22.5C22.95 21.3875 23.3625 21.0125 23.3625 20.525C23.3625 20.0375 22.95 19.6625 22.5 19.6625Z" fill="black"/>
</svg>
