<svg width="29" height="29" viewBox="0 0 29 29" fill="none" xmlns="http://www.w3.org/2000/svg">
<path d="M26.9199 20.8396L24.004 17.8644C23.3768 17.2704 22.5856 16.8769 21.7321 16.7343C20.8786 16.5918 20.0019 16.7067 19.2145 17.0645L17.9467 15.8014C19.4407 13.8127 20.123 11.334 19.8562 8.86421C19.5895 6.39446 18.3935 4.11707 16.5091 2.49051C14.6246 0.863941 12.1916 0.00896824 9.69988 0.0977013C7.20812 0.186434 4.84262 1.21228 3.07956 2.96874C1.3165 4.7252 0.286792 7.08184 0.197725 9.56426C0.108658 12.0467 0.966845 14.4706 2.59953 16.3479C4.23221 18.2253 6.51816 19.4168 8.99719 19.6826C11.4762 19.9483 13.9643 19.2686 15.9605 17.7802L17.2142 19.0292C16.8128 19.8146 16.669 20.7057 16.803 21.5768C16.9369 22.448 17.3419 23.2553 17.9608 23.885L20.9472 26.8601C21.7395 27.6486 22.8137 28.0914 23.9335 28.0914C25.0534 28.0914 26.1275 27.6486 26.9199 26.8601C27.3224 26.468 27.6423 25.9998 27.8606 25.4828C28.079 24.9659 28.1914 24.4107 28.1914 23.8499C28.1914 23.289 28.079 22.7338 27.8606 22.2169C27.6423 21.7 27.3224 21.2317 26.9199 20.8396ZM14.9744 14.8892C13.9887 15.8688 12.7336 16.5353 11.3678 16.8046C10.0021 17.0739 8.58679 16.9339 7.30082 16.4023C6.01486 15.8707 4.91589 14.9713 4.14274 13.8178C3.3696 12.6642 2.95696 11.3083 2.95696 9.92119C2.95696 8.53412 3.3696 7.17817 4.14274 6.02462C4.91589 4.87107 6.01486 3.97168 7.30082 3.44006C8.58679 2.90844 10.0021 2.76845 11.3678 3.03776C12.7336 3.30708 13.9887 3.97362 14.9744 4.95318C15.6303 5.605 16.1507 6.37933 16.5058 7.23182C16.8609 8.08431 17.0437 8.99822 17.0437 9.92119C17.0437 10.8442 16.8609 11.7581 16.5058 12.6106C16.1507 13.4631 15.6303 14.2374 14.9744 14.8892ZM24.9337 24.8112C24.8027 24.9427 24.6469 25.0471 24.4753 25.1184C24.3036 25.1896 24.1195 25.2263 23.9335 25.2263C23.7476 25.2263 23.5635 25.1896 23.3918 25.1184C23.2201 25.0471 23.0643 24.9427 22.9334 24.8112L19.947 21.836C19.815 21.7055 19.7102 21.5503 19.6387 21.3793C19.5671 21.2083 19.5303 21.0249 19.5303 20.8396C19.5303 20.6543 19.5671 20.4709 19.6387 20.2999C19.7102 20.1289 19.815 19.9736 19.947 19.8432C20.078 19.7116 20.2338 19.6072 20.4054 19.536C20.5771 19.4647 20.7612 19.4281 20.9472 19.4281C21.1331 19.4281 21.3172 19.4647 21.4889 19.536C21.6606 19.6072 21.8164 19.7116 21.9473 19.8432L24.9337 22.8184C25.0657 22.9488 25.1705 23.1041 25.242 23.2751C25.3136 23.4461 25.3504 23.6295 25.3504 23.8148C25.3504 24 25.3136 24.1835 25.242 24.3545C25.1705 24.5255 25.0657 24.6807 24.9337 24.8112Z" fill="#424866"/>
</svg>
